<svg width="24" height="24" viewBox="0 0 24 24" fill="none" xmlns="http://www.w3.org/2000/svg">
<g clip-path="url(#clip0_591_33799)">
<path d="M5.43207 6.84597L1.39307 2.80797L2.80807 1.39297L22.6071 21.193L21.1921 22.607L18.1541 19.567C16.4487 21.1601 14.1911 22.0284 11.8577 21.9889C9.52432 21.9493 7.29753 21.0049 5.64713 19.3549C3.99673 17.7049 3.0518 15.4783 3.01167 13.1449C2.97155 10.8115 3.83937 8.55375 5.43207 6.84797V6.84597ZM8.24307 4.02997L12.0001 0.271973L18.3641 6.63597C19.5913 7.86293 20.4377 9.41845 20.8014 11.1153C21.1651 12.8121 21.0306 14.5778 20.4141 16.2L8.24407 4.02997H8.24307Z" fill="#09121F"/>
</g>
<defs>
<clipPath id="clip0_591_33799">
<rect width="24" height="24" fill="white"/>
</clipPath>
</defs>
</svg>
