<svg width="24" height="24" viewBox="0 0 24 24" fill="none" xmlns="http://www.w3.org/2000/svg">
<g clip-path="url(#clip0_591_33803)">
<path d="M16.5361 15.95L18.6561 13.828L15.4751 10.646L19.0101 7.11098L16.8901 4.98998L13.3541 8.52498L10.1721 5.34298L8.0501 7.46398L16.5361 15.95ZM13.3541 5.69698L16.1821 2.86798C16.3696 2.68051 16.6239 2.5752 16.8891 2.5752C17.1543 2.5752 17.4086 2.68051 17.5961 2.86798L21.1321 6.40398C21.3196 6.59151 21.4249 6.84582 21.4249 7.11098C21.4249 7.37615 21.3196 7.63045 21.1321 7.81798L18.3031 10.646L20.7781 13.121C20.8711 13.2139 20.9448 13.3241 20.9952 13.4455C21.0455 13.5669 21.0714 13.6971 21.0714 13.8285C21.0714 13.9599 21.0455 14.09 20.9952 14.2114C20.9448 14.3328 20.8711 14.4431 20.7781 14.536L13.0001 22.314C12.8126 22.5015 12.5583 22.6068 12.2931 22.6068C12.0279 22.6068 11.7736 22.5015 11.5861 22.314L1.6861 12.414C1.49863 12.2265 1.39331 11.9721 1.39331 11.707C1.39331 11.4418 1.49863 11.1875 1.6861 11L9.4641 3.22198C9.55697 3.12901 9.66726 3.05525 9.78866 3.00492C9.91006 2.9546 10.0402 2.9287 10.1716 2.9287C10.303 2.9287 10.4331 2.9546 10.5545 3.00492C10.6759 3.05525 10.7862 3.12901 10.8791 3.22198L13.3541 5.69698Z" fill="#09121F"/>
</g>
<defs>
<clipPath id="clip0_591_33803">
<rect width="24" height="24" fill="white"/>
</clipPath>
</defs>
</svg>
