<svg width="24" height="24" viewBox="0 0 24 24" fill="none" xmlns="http://www.w3.org/2000/svg">
<g clip-path="url(#clip0_591_33835)">
<path d="M11 4.126V2H13V4.126C13.6857 4.30347 14.312 4.65973 14.8149 5.1584C15.3179 5.65707 15.6795 6.28028 15.8628 6.9644C16.0462 7.64852 16.0447 8.36905 15.8585 9.05239C15.6723 9.73574 15.3081 10.3574 14.803 10.854L20.866 21.356L19.134 22.356L13.071 11.855C12.3703 12.0495 11.6298 12.0495 10.929 11.855L4.86603 22.356L3.13403 21.356L9.19703 10.854C8.692 10.3574 8.32779 9.73574 8.1416 9.05239C7.95541 8.36905 7.9539 7.64852 8.13724 6.9644C8.32057 6.28028 8.68218 5.65707 9.18513 5.1584C9.68808 4.65973 10.3144 4.30347 11 4.126ZM12 9C12.2653 9 12.5196 8.89464 12.7071 8.70711C12.8947 8.51957 13 8.26522 13 8C13 7.73478 12.8947 7.48043 12.7071 7.29289C12.5196 7.10536 12.2653 7 12 7C11.7348 7 11.4805 7.10536 11.2929 7.29289C11.1054 7.48043 11 7.73478 11 8C11 8.26522 11.1054 8.51957 11.2929 8.70711C11.4805 8.89464 11.7348 9 12 9Z" fill="#09121F"/>
</g>
<defs>
<clipPath id="clip0_591_33835">
<rect width="24" height="24" fill="white"/>
</clipPath>
</defs>
</svg>
