<svg width="24" height="24" viewBox="0 0 24 24" fill="none" xmlns="http://www.w3.org/2000/svg">
<g clip-path="url(#clip0_591_33831)">
<path d="M16.3299 13.5C17.1627 12.8455 17.8358 12.0103 18.2983 11.0575C18.7609 10.1047 19.0008 9.05916 18.9999 8H20.9999C21.0009 9.41043 20.67 10.8013 20.0338 12.0601C19.3976 13.3189 18.4741 14.4103 17.3379 15.246L19.8659 19.624C20.1311 20.0834 20.203 20.6293 20.0657 21.1416C19.9284 21.6539 19.5933 22.0908 19.1339 22.356L15.6069 16.248C14.4696 16.7456 13.2413 17.0016 11.9999 17C10.7585 17.0016 9.53025 16.7456 8.39291 16.248L4.86591 22.356C4.40657 22.0908 4.07139 21.6539 3.93411 21.1416C3.79684 20.6293 3.86871 20.0834 4.13391 19.624L9.19691 10.854C8.69188 10.3574 8.32767 9.73574 8.14148 9.05239C7.95529 8.36905 7.95378 7.64852 8.13712 6.9644C8.32045 6.28028 8.68205 5.65707 9.18501 5.1584C9.68796 4.65973 10.3142 4.30347 10.9999 4.126V2H12.9999V4.126C13.6856 4.30347 14.3119 4.65973 14.8148 5.1584C15.3178 5.65707 15.6794 6.28028 15.8627 6.9644C16.046 7.64852 16.0445 8.36905 15.8583 9.05239C15.6722 9.73574 15.3079 10.3574 14.8029 10.854L16.3299 13.5ZM14.5999 14.502L13.0719 11.855C12.3712 12.0495 11.6307 12.0495 10.9299 11.855L9.40191 14.502C10.2059 14.823 11.0819 15 12.0009 15C12.9189 15 13.7959 14.823 14.5999 14.502ZM11.9999 9C12.2651 9 12.5195 8.89464 12.707 8.70711C12.8946 8.51957 12.9999 8.26522 12.9999 8C12.9999 7.73478 12.8946 7.48043 12.707 7.29289C12.5195 7.10536 12.2651 7 11.9999 7C11.7347 7 11.4803 7.10536 11.2928 7.29289C11.1053 7.48043 10.9999 7.73478 10.9999 8C10.9999 8.26522 11.1053 8.51957 11.2928 8.70711C11.4803 8.89464 11.7347 9 11.9999 9Z" fill="#09121F"/>
</g>
<defs>
<clipPath id="clip0_591_33831">
<rect width="24" height="24" fill="white"/>
</clipPath>
</defs>
</svg>
