<svg width="24" height="24" viewBox="0 0 24 24" fill="none" xmlns="http://www.w3.org/2000/svg">
<g clip-path="url(#clip0_591_33895)">
<path d="M14 19H21V21H12L8.00195 21.002L1.51495 14.515C1.32748 14.3274 1.22217 14.0731 1.22217 13.808C1.22217 13.5428 1.32748 13.2885 1.51495 13.101L12.12 2.49397C12.2128 2.40099 12.3231 2.32723 12.4445 2.27691C12.5659 2.22659 12.696 2.20068 12.8275 2.20068C12.9589 2.20068 13.089 2.22659 13.2104 2.27691C13.3318 2.32723 13.4421 2.40099 13.535 2.49397L21.313 10.272C21.5004 10.4595 21.6057 10.7138 21.6057 10.979C21.6057 11.2441 21.5004 11.4984 21.313 11.686L14 19ZM15.657 14.515L19.192 10.979L12.828 4.61497L9.29295 8.15097L15.657 14.515Z" fill="#09121F"/>
</g>
<defs>
<clipPath id="clip0_591_33895">
<rect width="24" height="24" fill="white"/>
</clipPath>
</defs>
</svg>
