<svg width="24" height="24" viewBox="0 0 24 24" fill="none" xmlns="http://www.w3.org/2000/svg">
<g clip-path="url(#clip0_591_34003)">
<path d="M15.9501 2.39301L21.6071 8.05001C21.7946 8.23753 21.8999 8.49184 21.8999 8.75701C21.8999 9.02217 21.7946 9.27648 21.6071 9.46401L13.8281 17.243L11.7081 17.95L10.2931 19.364C10.1056 19.5515 9.85127 19.6568 9.5861 19.6568C9.32094 19.6568 9.06663 19.5515 8.8791 19.364L4.6361 15.121C4.44863 14.9335 4.34332 14.6792 4.34332 14.414C4.34332 14.1488 4.44863 13.8945 4.6361 13.707L6.0501 12.293L6.7571 10.172L14.5361 2.39301C14.7236 2.20554 14.9779 2.10022 15.2431 2.10022C15.5083 2.10022 15.7626 2.20554 15.9501 2.39301ZM16.6571 5.92901L10.2931 12.293L11.7071 13.707L18.0711 7.34301L16.6571 5.92901ZM4.2821 16.889L7.1111 19.718L5.6971 21.132L1.4541 19.718L4.2821 16.889Z" fill="#09121F"/>
</g>
<defs>
<clipPath id="clip0_591_34003">
<rect width="24" height="24" fill="white"/>
</clipPath>
</defs>
</svg>
