<svg width="24" height="24" viewBox="0 0 24 24" fill="none" xmlns="http://www.w3.org/2000/svg">
<g clip-path="url(#clip0_591_34023)">
<path d="M4.00012 18.922L2.65012 18.377C2.40426 18.2775 2.20799 18.0845 2.10447 17.8403C2.00095 17.5961 1.99867 17.3208 2.09812 17.075L4.00012 12.367V18.922ZM8.86012 21H7.00012C6.7349 21 6.48055 20.8946 6.29301 20.7071C6.10547 20.5195 6.00012 20.2652 6.00012 20V13.922L8.86012 21ZM6.02212 5.96798L15.2941 2.22198C15.5399 2.12284 15.8149 2.12529 16.0588 2.22879C16.3028 2.33229 16.4956 2.52837 16.5951 2.77398L22.2151 16.682C22.2643 16.8038 22.2891 16.9341 22.2879 17.0654C22.2867 17.1968 22.2597 17.3266 22.2084 17.4475C22.157 17.5685 22.0823 17.6781 21.9886 17.7701C21.8949 17.8622 21.7839 17.9348 21.6621 17.984L12.3901 21.73C12.2683 21.7792 12.138 21.8039 12.0067 21.8028C11.8753 21.8016 11.7455 21.7746 11.6245 21.7232C11.5036 21.6719 11.394 21.5972 11.302 21.5035C11.2099 21.4097 11.1373 21.2988 11.0881 21.177L5.47012 7.26998C5.37104 7.02411 5.37363 6.74897 5.47732 6.50501C5.58102 6.26106 5.77733 6.06825 6.02312 5.96898L6.02212 5.96798ZM9.00012 8.99998C9.26533 8.99998 9.51969 8.89462 9.70722 8.70708C9.89476 8.51955 10.0001 8.26519 10.0001 7.99998C10.0001 7.73476 9.89476 7.48041 9.70722 7.29287C9.51969 7.10533 9.26533 6.99998 9.00012 6.99998C8.7349 6.99998 8.48055 7.10533 8.29301 7.29287C8.10547 7.48041 8.00012 7.73476 8.00012 7.99998C8.00012 8.26519 8.10547 8.51955 8.29301 8.70708C8.48055 8.89462 8.7349 8.99998 9.00012 8.99998Z" fill="#09121F"/>
</g>
<defs>
<clipPath id="clip0_591_34023">
<rect width="24" height="24" fill="white"/>
</clipPath>
</defs>
</svg>
