<svg width="24" height="24" viewBox="0 0 24 24" fill="none" xmlns="http://www.w3.org/2000/svg">
<g clip-path="url(#clip0_591_34027)">
<path d="M4.92908 21.485L10.7751 15.639C11.2003 15.753 11.6514 15.7235 12.0581 15.555C12.4649 15.3865 12.8047 15.0886 13.0249 14.7073C13.2451 14.326 13.3332 13.8827 13.2758 13.4462C13.2183 13.0097 13.0184 12.6043 12.7071 12.293C12.3958 11.9817 11.9904 11.7818 11.5539 11.7243C11.1174 11.6668 10.6741 11.755 10.2928 11.9752C9.91152 12.1954 9.61354 12.5352 9.44508 12.942C9.27661 13.3487 9.24709 13.7997 9.36108 14.225L3.51508 20.071L2.45508 19.011C5.28208 15.711 6.34308 12.057 7.75708 5.92901L14.1211 5.22201L19.7781 10.879L19.0711 17.243C12.9431 18.657 9.28908 19.718 5.99008 22.546L4.92908 21.486V21.485ZM16.5961 2.04001L22.9431 8.38601C23.0085 8.4513 23.0545 8.53344 23.076 8.62331C23.0976 8.71318 23.0938 8.80726 23.0651 8.89511C23.0364 8.98296 22.9839 9.06113 22.9135 9.12096C22.8431 9.18078 22.7574 9.21991 22.6661 9.23401L21.1921 9.46401L15.5361 3.80801L15.7481 2.32301C15.7613 2.23118 15.7997 2.14483 15.8592 2.07361C15.9186 2.0024 15.9967 1.94912 16.0847 1.91976C16.1727 1.89039 16.2672 1.88608 16.3575 1.90732C16.4478 1.92856 16.5304 1.9745 16.5961 2.04001Z" fill="#09121F"/>
</g>
<defs>
<clipPath id="clip0_591_34027">
<rect width="24" height="24" fill="white"/>
</clipPath>
</defs>
</svg>
