<svg width="24" height="24" viewBox="0 0 24 24" fill="none" xmlns="http://www.w3.org/2000/svg">
<g clip-path="url(#clip0_591_34035)">
<path d="M5.63596 12.707L7.46396 14.536L8.87996 13.12L7.04996 11.293L8.46396 9.87901L10.293 11.707L11.707 10.293L9.87996 8.46401L11.294 7.05001L13.12 8.88001L14.535 7.46501L12.706 5.63701L15.535 2.80901C15.7225 2.62154 15.9768 2.51622 16.242 2.51622C16.5071 2.51622 16.7614 2.62154 16.949 2.80901L21.191 7.05101C21.3784 7.23854 21.4837 7.49284 21.4837 7.75801C21.4837 8.02317 21.3784 8.27748 21.191 8.46501L8.46396 21.192C8.27643 21.3795 8.02212 21.4848 7.75696 21.4848C7.49179 21.4848 7.23749 21.3795 7.04996 21.192L2.80796 16.95C2.62049 16.7625 2.51517 16.5082 2.51517 16.243C2.51517 15.9778 2.62049 15.7235 2.80796 15.536L5.63596 12.707ZM14.121 18.363L18.364 14.121L21 16.757V21H16.758L14.121 18.363ZM5.63596 9.87801L2.80696 7.05001C2.71398 6.95713 2.64022 6.84685 2.5899 6.72545C2.53957 6.60405 2.51367 6.47392 2.51367 6.34251C2.51367 6.21109 2.53957 6.08097 2.5899 5.95957C2.64022 5.83817 2.71398 5.72788 2.80696 5.63501L5.63596 2.80701C5.82349 2.61954 6.07779 2.51422 6.34296 2.51422C6.60812 2.51422 6.86243 2.61954 7.04996 2.80701L9.87996 5.63501L5.63596 9.87801Z" fill="#09121F"/>
</g>
<defs>
<clipPath id="clip0_591_34035">
<rect width="24" height="24" fill="white"/>
</clipPath>
</defs>
</svg>
