<svg width="24" height="24" viewBox="0 0 24 24" fill="none" xmlns="http://www.w3.org/2000/svg">
<g clip-path="url(#clip0_591_34051)">
<path d="M4.92888 13.207L7.04988 15.328L8.46388 13.914L6.34388 11.793L8.46388 9.67201L11.2929 12.5L12.7069 11.086L9.87988 8.25701L11.9999 6.13601L14.1209 8.25701L15.5359 6.84301L13.4139 4.72201L16.2429 1.89301C16.4304 1.70554 16.6847 1.60022 16.9499 1.60022C17.215 1.60022 17.4694 1.70554 17.6569 1.89301L22.6069 6.84301C22.7944 7.03053 22.8997 7.28484 22.8997 7.55001C22.8997 7.81517 22.7944 8.06948 22.6069 8.25701L7.75688 23.107C7.56936 23.2945 7.31505 23.3998 7.04988 23.3998C6.78472 23.3998 6.53041 23.2945 6.34288 23.107L1.39288 18.157C1.20541 17.9695 1.1001 17.7152 1.1001 17.45C1.1001 17.1848 1.20541 16.9305 1.39288 16.743L4.92888 13.207Z" fill="#09121F"/>
</g>
<defs>
<clipPath id="clip0_591_34051">
<rect width="24" height="24" fill="white"/>
</clipPath>
</defs>
</svg>
