<svg width="24" height="24" viewBox="0 0 24 24" fill="none" xmlns="http://www.w3.org/2000/svg">
<g clip-path="url(#clip0_591_34063)">
<path d="M9.68308 7.56202L12.0001 9.88002L18.3741 3.50502C18.5598 3.31922 18.7803 3.17183 19.023 3.07127C19.2657 2.97071 19.5259 2.91895 19.7886 2.91895C20.0513 2.91895 20.3114 2.97071 20.5541 3.07127C20.7968 3.17183 21.0174 3.31922 21.2031 3.50502L21.9101 4.21202L9.68308 16.438C10.0455 17.2927 10.0994 18.2467 9.83546 19.1367C9.57157 20.0267 9.00635 20.7972 8.23666 21.3162C7.46698 21.8351 6.54076 22.0702 5.61675 21.9812C4.69274 21.8921 3.82847 21.4844 3.17207 20.828C2.51566 20.1716 2.108 19.3074 2.01894 18.3834C1.92989 17.4593 2.16498 16.5331 2.68394 15.7634C3.20289 14.9938 3.97339 14.4285 4.86339 14.1646C5.75338 13.9007 6.70745 13.9546 7.56208 14.317L9.88008 12L7.56208 9.68302C6.70745 10.0454 5.75338 10.0993 4.86339 9.8354C3.97339 9.57151 3.20289 9.00629 2.68394 8.2366C2.16498 7.46692 1.92989 6.5407 2.01894 5.61669C2.108 4.69268 2.51566 3.82841 3.17207 3.17201C3.82847 2.5156 4.69274 2.10794 5.61675 2.01888C6.54076 1.92983 7.46698 2.16492 8.23666 2.68388C9.00635 3.20283 9.57157 3.97333 9.83546 4.86333C10.0994 5.75332 10.0455 6.70739 9.68308 7.56202ZM6.00008 8.00002C6.53051 8.00002 7.03922 7.78931 7.4143 7.41423C7.78937 7.03916 8.00008 6.53045 8.00008 6.00002C8.00008 5.46959 7.78937 4.96088 7.4143 4.58581C7.03922 4.21073 6.53051 4.00002 6.00008 4.00002C5.46965 4.00002 4.96094 4.21073 4.58587 4.58581C4.21079 4.96088 4.00008 5.46959 4.00008 6.00002C4.00008 6.53045 4.21079 7.03916 4.58587 7.41423C4.96094 7.78931 5.46965 8.00002 6.00008 8.00002ZM6.00008 20C6.53051 20 7.03922 19.7893 7.4143 19.4142C7.78937 19.0392 8.00008 18.5305 8.00008 18C8.00008 17.4696 7.78937 16.9609 7.4143 16.5858C7.03922 16.2107 6.53051 16 6.00008 16C5.46965 16 4.96094 16.2107 4.58587 16.5858C4.21079 16.9609 4.00008 17.4696 4.00008 18C4.00008 18.5305 4.21079 19.0392 4.58587 19.4142C4.96094 19.7893 5.46965 20 6.00008 20ZM15.5351 13.413L21.9101 19.789L21.2031 20.496C21.0174 20.6818 20.7968 20.8292 20.5541 20.9298C20.3114 21.0303 20.0513 21.0821 19.7886 21.0821C19.5259 21.0821 19.2657 21.0303 19.023 20.9298C18.7803 20.8292 18.5598 20.6818 18.3741 20.496L13.4141 15.535L15.5341 13.413H15.5351Z" fill="#09121F"/>
</g>
<defs>
<clipPath id="clip0_591_34063">
<rect width="24" height="24" fill="white"/>
</clipPath>
</defs>
</svg>
