<svg width="24" height="24" viewBox="0 0 24 24" fill="none" xmlns="http://www.w3.org/2000/svg">
<g clip-path="url(#clip0_591_26215)">
<path d="M12 19H14V5.99998L20.394 8.73998C20.574 8.81715 20.7274 8.94546 20.8351 9.10901C20.9428 9.27256 21.0002 9.46414 21 9.65998V19H23V21H1V19H3V5.64998C2.99998 5.4565 3.05608 5.26717 3.16151 5.10493C3.26695 4.9427 3.41718 4.81454 3.594 4.73599L11.297 1.31198C11.3732 1.27813 11.4567 1.26387 11.5398 1.27051C11.6229 1.27714 11.7031 1.30447 11.7729 1.34999C11.8428 1.3955 11.9002 1.45778 11.9398 1.53113C11.9795 1.60449 12.0002 1.6866 12 1.76998V19Z" fill="#09121F"/>
</g>
<defs>
<clipPath id="clip0_591_26215">
<rect width="24" height="24" fill="white"/>
</clipPath>
</defs>
</svg>
