<svg width="24" height="24" viewBox="0 0 24 24" fill="none" xmlns="http://www.w3.org/2000/svg">
<g clip-path="url(#clip0_591_26283)">
<path d="M20 20C20 20.2652 19.8946 20.5196 19.7071 20.7071C19.5196 20.8946 19.2652 21 19 21H5C4.73478 21 4.48043 20.8946 4.29289 20.7071C4.10536 20.5196 4 20.2652 4 20V11H1L11.327 1.61198C11.5111 1.44446 11.7511 1.35162 12 1.35162C12.2489 1.35162 12.4889 1.44446 12.673 1.61198L23 11H20V20ZM7.5 13C7.5 14.1935 7.97411 15.338 8.81802 16.182C9.66193 17.0259 10.8065 17.5 12 17.5C13.1935 17.5 14.3381 17.0259 15.182 16.182C16.0259 15.338 16.5 14.1935 16.5 13H14.5C14.5 13.663 14.2366 14.2989 13.7678 14.7677C13.2989 15.2366 12.663 15.5 12 15.5C11.337 15.5 10.7011 15.2366 10.2322 14.7677C9.76339 14.2989 9.5 13.663 9.5 13H7.5Z" fill="#09121F"/>
</g>
<defs>
<clipPath id="clip0_591_26283">
<rect width="24" height="24" fill="white"/>
</clipPath>
</defs>
</svg>
