<svg width="24" height="24" viewBox="0 0 24 24" fill="none" xmlns="http://www.w3.org/2000/svg">
<g clip-path="url(#clip0_591_26271)">
<path d="M20 20C20 20.2652 19.8946 20.5196 19.7071 20.7071C19.5196 20.8946 19.2652 21 19 21H5C4.73478 21 4.48043 20.8946 4.29289 20.7071C4.10536 20.5196 4 20.2652 4 20V11H1L11.327 1.61198C11.5111 1.44446 11.7511 1.35162 12 1.35162C12.2489 1.35162 12.4889 1.44446 12.673 1.61198L23 11H20V20ZM8.592 13.808L7.601 14.38L8.601 16.113L9.594 15.54C9.99236 15.9166 10.4736 16.1944 10.999 16.351V17.496H13.001V16.35C13.5263 16.1937 14.0075 15.9163 14.406 15.54L15.398 16.112L16.4 14.38L15.409 13.808C15.5355 13.2754 15.5355 12.7206 15.409 12.188L16.4 11.615L15.4 9.88198L14.407 10.455C14.008 10.0784 13.526 9.80097 13 9.64498V8.49998H10.998V9.64398C10.4726 9.80055 9.99136 10.0783 9.593 10.455L8.601 9.88198L7.6 11.616L8.591 12.188C8.46446 12.7206 8.46446 13.2754 8.591 13.808H8.592ZM12 14.498C11.803 14.4981 11.6078 14.4594 11.4257 14.3841C11.2436 14.3089 11.0781 14.1984 10.9387 14.0592C10.7993 13.92 10.6886 13.7546 10.6131 13.5726C10.5376 13.3906 10.4986 13.1955 10.4985 12.9985C10.4984 12.8014 10.5371 12.6063 10.6123 12.4242C10.6876 12.2421 10.798 12.0766 10.9373 11.9372C11.0765 11.7977 11.2419 11.6871 11.4239 11.6116C11.6059 11.5361 11.801 11.4971 11.998 11.497C12.3958 11.4967 12.7775 11.6545 13.059 11.9356C13.3404 12.2167 13.4987 12.5982 13.499 12.996C13.4993 13.3938 13.3415 13.7754 13.0604 14.0569C12.7793 14.3384 12.3978 14.4967 12 14.497V14.498Z" fill="#09121F"/>
</g>
<defs>
<clipPath id="clip0_591_26271">
<rect width="24" height="24" fill="white"/>
</clipPath>
</defs>
</svg>
