<svg width="24" height="24" viewBox="0 0 24 24" fill="none" xmlns="http://www.w3.org/2000/svg">
<g clip-path="url(#clip0_591_26259)">
<path d="M19 20C19 20.2652 18.8946 20.5196 18.7071 20.7071C18.5196 20.8946 18.2652 21 18 21H4C3.73478 21 3.48043 20.8946 3.29289 20.7071C3.10536 20.5196 3 20.2652 3 20V11H0L10.327 1.61198C10.5111 1.44446 10.7511 1.35162 11 1.35162C11.2489 1.35162 11.4889 1.44446 11.673 1.61198L22 11H19V20ZM11 15C11.663 15 12.2989 14.7366 12.7678 14.2677C13.2366 13.7989 13.5 13.163 13.5 12.5C13.5 11.8369 13.2366 11.2011 12.7678 10.7322C12.2989 10.2634 11.663 9.99998 11 9.99998C10.337 9.99998 9.70107 10.2634 9.23223 10.7322C8.76339 11.2011 8.5 11.8369 8.5 12.5C8.5 13.163 8.76339 13.7989 9.23223 14.2677C9.70107 14.7366 10.337 15 11 15Z" fill="#09121F"/>
</g>
<defs>
<clipPath id="clip0_591_26259">
<rect width="24" height="24" fill="white"/>
</clipPath>
</defs>
</svg>
