<svg width="24" height="24" viewBox="0 0 24 24" fill="none" xmlns="http://www.w3.org/2000/svg">
<g clip-path="url(#clip0_591_26315)">
<path d="M3 13H21V21.002C21 21.553 20.555 22 20.007 22H3.993C3.86225 21.9997 3.73284 21.9737 3.61215 21.9234C3.49147 21.8731 3.38189 21.7995 3.28966 21.7068C3.19744 21.6141 3.12439 21.5042 3.07469 21.3832C3.02499 21.2623 2.99961 21.1327 3 21.002V13ZM3 2.998C3 2.447 3.445 2 3.993 2H20.007C20.555 2 21 2.446 21 2.998V11H3V2.998ZM9 5V7H15V5H9ZM9 16V18H15V16H9Z" fill="#09121F"/>
</g>
<defs>
<clipPath id="clip0_591_26315">
<rect width="24" height="24" fill="white"/>
</clipPath>
</defs>
</svg>
