<svg width="24" height="24" viewBox="0 0 24 24" fill="none" xmlns="http://www.w3.org/2000/svg">
<g clip-path="url(#clip0_591_26419)">
<path d="M3.51512 2.10001L22.6071 21.192L21.1921 22.607L19.1781 20.592C18.4838 20.8624 17.7452 21.0008 17.0001 21H7.00012C5.58335 21.0009 4.21197 20.5004 3.12881 19.5872C2.04565 18.6739 1.32059 17.4069 1.08202 16.0103C0.843459 14.6138 1.10678 13.1779 1.82535 11.9569C2.54393 10.7358 3.6714 9.80849 5.00812 9.33901C4.96532 8.47016 5.08504 7.60095 5.36112 6.77601L2.10012 3.51401L3.51512 2.10001ZM17.0001 9.00001C18.052 9.00065 19.0853 9.2777 19.9965 9.8034C20.9076 10.3291 21.6646 11.085 22.1916 11.9954C22.7187 12.9057 22.9972 13.9386 22.9994 14.9905C23.0016 16.0424 22.7274 17.0765 22.2041 17.989L14.0101 9.79601C14.8901 9.29001 15.9101 9.00001 17.0001 9.00001ZM12.0001 2.00001C13.5424 2.00014 15.0415 2.5094 16.2648 3.44876C17.488 4.38811 18.3669 5.705 18.7651 7.19501C17.7066 6.95739 16.611 6.93679 15.5443 7.13445C14.4777 7.3321 13.4622 7.74391 12.5591 8.34501L7.69412 3.48001C8.9233 2.51854 10.4396 1.99739 12.0001 2.00001Z" fill="#09121F"/>
</g>
<defs>
<clipPath id="clip0_591_26419">
<rect width="24" height="24" fill="white"/>
</clipPath>
</defs>
</svg>
