<svg width="24" height="24" viewBox="0 0 24 24" fill="none" xmlns="http://www.w3.org/2000/svg">
<g clip-path="url(#clip0_591_26547)">
<path d="M20 14.5V23.5L16.667 21H14V17H16.667L20 14.5ZM21 3C21.2652 3 21.5195 3.10536 21.7071 3.29289C21.8946 3.48043 22 3.73478 22 4V14.529C21.0072 13.6395 19.7465 13.1058 18.4168 13.0123C17.0871 12.9188 15.7641 13.2708 14.6567 14.0126C13.5492 14.7545 12.7203 15.844 12.3008 17.1093C11.8813 18.3745 11.8951 19.7434 12.34 21H3.00195C2.73674 21 2.48238 20.8946 2.29485 20.7071C2.10731 20.5196 2.00195 20.2652 2.00195 20V4C2.00195 3.73478 2.10731 3.48043 2.29485 3.29289C2.48238 3.10536 2.73674 3 3.00195 3H21.002H21ZM21 17C21.5189 16.9977 22.0185 17.1972 22.3931 17.5564C22.7677 17.9156 22.988 18.4063 23.0075 18.9249C23.027 19.4436 22.8441 19.9494 22.4975 20.3357C22.1508 20.722 21.6676 20.9584 21.15 20.995L21 21V17ZM5.64695 6.238L4.35295 7.762L12.073 14.317L19.654 7.757L18.346 6.244L12.06 11.682L5.64695 6.238Z" fill="#09121F"/>
</g>
<defs>
<clipPath id="clip0_591_26547">
<rect width="24" height="24" fill="white"/>
</clipPath>
</defs>
</svg>
