<svg width="24" height="24" viewBox="0 0 24 24" fill="none" xmlns="http://www.w3.org/2000/svg">
<g clip-path="url(#clip0_591_26591)">
<path d="M9.74289 15H14.2569C13.4615 14.0359 13.0182 12.8296 13.0001 11.5798C12.982 10.3301 13.39 9.11142 14.1571 8.12461C14.9242 7.13779 16.0045 6.44166 17.22 6.1509C18.4356 5.86014 19.714 5.99208 20.8446 6.52499C21.9752 7.0579 22.8905 7.96 23.4398 9.08269C23.9892 10.2054 24.1397 11.4817 23.8667 12.7014C23.5937 13.9211 22.9134 15.0114 21.9379 15.7928C20.9623 16.5741 19.7498 16.9999 18.4999 17H5.49989C4.25001 16.9999 3.03744 16.5741 2.06191 15.7928C1.08638 15.0114 0.406074 13.9211 0.133062 12.7014C-0.13995 11.4817 0.0106132 10.2054 0.55995 9.08269C1.10929 7.96 2.02463 7.0579 3.1552 6.52499C4.28578 5.99208 5.56415 5.86014 6.77973 6.1509C7.99532 6.44166 9.07562 7.13779 9.84268 8.12461C10.6097 9.11142 11.0178 10.3301 10.9997 11.5798C10.9815 12.8296 10.5383 14.0359 9.74289 15ZM5.49989 13C5.89772 13 6.27925 12.842 6.56055 12.5607C6.84186 12.2794 6.99989 11.8978 6.99989 11.5C6.99989 11.1022 6.84186 10.7206 6.56055 10.4393C6.27925 10.158 5.89772 10 5.49989 10C5.10207 10 4.72053 10.158 4.43923 10.4393C4.15793 10.7206 3.99989 11.1022 3.99989 11.5C3.99989 11.8978 4.15793 12.2794 4.43923 12.5607C4.72053 12.842 5.10207 13 5.49989 13ZM18.4999 13C18.8977 13 19.2792 12.842 19.5606 12.5607C19.8419 12.2794 19.9999 11.8978 19.9999 11.5C19.9999 11.1022 19.8419 10.7206 19.5606 10.4393C19.2792 10.158 18.8977 10 18.4999 10C18.1021 10 17.7205 10.158 17.4392 10.4393C17.1579 10.7206 16.9999 11.1022 16.9999 11.5C16.9999 11.8978 17.1579 12.2794 17.4392 12.5607C17.7205 12.842 18.1021 13 18.4999 13Z" fill="#09121F"/>
</g>
<defs>
<clipPath id="clip0_591_26591">
<rect width="24" height="24" fill="white"/>
</clipPath>
</defs>
</svg>
