<svg width="24" height="24" viewBox="0 0 24 24" fill="none" xmlns="http://www.w3.org/2000/svg">
<g clip-path="url(#clip0_591_26615)">
<path d="M14.121 10.48C13.9334 10.2925 13.6791 10.1872 13.414 10.1872C13.1488 10.1872 12.8945 10.2925 12.707 10.48L12 11.186C11.8155 11.377 11.5948 11.5294 11.3508 11.6342C11.1068 11.739 10.8443 11.7942 10.5788 11.7965C10.3132 11.7988 10.0498 11.7482 9.80405 11.6476C9.55826 11.5471 9.33496 11.3986 9.14717 11.2108C8.95938 11.023 8.81088 10.7997 8.71032 10.5539C8.60975 10.3081 8.55915 10.0447 8.56146 9.77919C8.56377 9.51363 8.61894 9.25119 8.72376 9.00718C8.82857 8.76317 8.98094 8.54248 9.17196 8.35799L14.802 2.72599C16.1349 2.42281 17.5295 2.54759 18.7874 3.08256C20.0453 3.61754 21.1026 4.53549 21.8088 5.70588C22.5151 6.87627 22.8344 8.23953 22.7213 9.60182C22.6082 10.9641 22.0685 12.2561 21.179 13.294L19.071 15.429L14.121 10.479V10.48ZM3.16096 4.46799C4.19572 3.43337 5.54918 2.77797 7.00252 2.60775C8.45586 2.43754 9.92414 2.76246 11.17 3.52999L7.75696 6.94399C7.01776 7.68172 6.59639 8.67929 6.5829 9.72355C6.5694 10.7678 6.96485 11.7759 7.68474 12.5325C8.40463 13.2891 9.39187 13.7341 10.4355 13.7725C11.4792 13.8109 12.4964 13.4396 13.27 12.738L13.414 12.601L17.657 16.843L13.414 21.086C13.0389 21.4609 12.5303 21.6716 12 21.6716C11.4696 21.6716 10.961 21.4609 10.586 21.086L3.15996 13.66C1.94109 12.441 1.25635 10.7878 1.25635 9.06399C1.25635 7.34018 1.94109 5.68696 3.15996 4.46799H3.16096Z" fill="#09121F"/>
</g>
<defs>
<clipPath id="clip0_591_26615">
<rect width="24" height="24" fill="white"/>
</clipPath>
</defs>
</svg>
